<?xml version="1.0" encoding="UTF-8"?>
<!DOCTYPE svg PUBLIC "-//W3C//DTD SVG 1.1//EN" "http://www.w3.org/Graphics/SVG/1.1/DTD/svg11.dtd">
<!-- Creator: CorelDRAW -->
<svg xmlns="http://www.w3.org/2000/svg" xml:space="preserve" width="41.2451mm" height="41.2451mm" version="1.1" style="shape-rendering:geometricPrecision; text-rendering:geometricPrecision; image-rendering:optimizeQuality; fill-rule:evenodd; clip-rule:evenodd"
viewBox="0 0 4775.99 4775.99"
 xmlns:xlink="http://www.w3.org/1999/xlink"
 xmlns:xodm="http://www.corel.com/coreldraw/odm/2003">
 <defs>
  <style type="text/css">
   <![CDATA[
    .fil0 {fill:#ED3237}
   ]]>
  </style>
 </defs>
 <g id="Capa_x0020_1">
  <metadata id="CorelCorpID_0Corel-Layer"/>
  <path class="fil0" d="M2387.99 0c1318.85,0 2388,1069.15 2388,2387.99 0,1318.85 -1069.15,2388 -2388,2388 -1318.84,0 -2387.99,-1069.15 -2387.99,-2388 0,-1318.84 1069.15,-2387.99 2387.99,-2387.99zm0 248.24c1181.75,0 2139.76,958.01 2139.76,2139.75 0,1181.75 -958.01,2139.76 -2139.76,2139.76 -1181.74,0 -2139.75,-958.01 -2139.75,-2139.76 0,-1181.74 958.01,-2139.75 2139.75,-2139.75z"/>
  <circle class="fil0" cx="1556.17" cy="1801.72" r="246.46"/>
  <circle class="fil0" cx="3225.35" cy="1801.72" r="246.46"/>
  <path class="fil0" d="M3251.89 3435.96c22.85,41.96 75.42,57.46 117.38,34.61 41.96,-22.85 57.46,-75.42 34.61,-117.38 -100.08,-183.04 -247.94,-336.04 -426.69,-442.09 -172.96,-102.63 -374.74,-161.56 -590.07,-161.56 -214.53,0 -415.72,58.53 -588.37,160.54 -178.43,105.42 -326.17,257.4 -426.47,439.25 -23.04,41.96 -7.7,94.69 34.26,117.73 41.96,23.04 94.69,7.7 117.73,-34.26 85.25,-154.54 210.9,-283.77 362.69,-373.45 146.37,-86.48 317.35,-136.11 500.15,-136.11 183.45,0 355.05,50.02 501.86,137.12 152.25,90.32 278.01,220.32 362.91,375.6z"/>
 </g>
</svg>
