<?xml version="1.0" encoding="UTF-8"?>
<!DOCTYPE svg PUBLIC "-//W3C//DTD SVG 1.1//EN" "http://www.w3.org/Graphics/SVG/1.1/DTD/svg11.dtd">
<!-- Creator: CorelDRAW -->
<svg xmlns="http://www.w3.org/2000/svg" xml:space="preserve" width="41.2451mm" height="41.2451mm" version="1.1" style="shape-rendering:geometricPrecision; text-rendering:geometricPrecision; image-rendering:optimizeQuality; fill-rule:evenodd; clip-rule:evenodd"
viewBox="0 0 1558.16 1558.16"
 xmlns:xlink="http://www.w3.org/1999/xlink"
 xmlns:xodm="http://www.corel.com/coreldraw/odm/2003">
 <defs>
  <style type="text/css">
   <![CDATA[
    .fil0 {fill:#FFF212}
    .fil1 {fill:#FFF212;fill-rule:nonzero}
   ]]>
  </style>
 </defs>
 <g id="Capa_x0020_1">
  <metadata id="CorelCorpID_0Corel-Layer"/>
  <path class="fil0" d="M779.08 0c430.27,0 779.08,348.81 779.08,779.08 0,430.27 -348.81,779.08 -779.08,779.08 -430.27,0 -779.08,-348.81 -779.08,-779.08 0,-430.27 348.81,-779.08 779.08,-779.08zm0 80.99c385.54,0 698.09,312.55 698.09,698.09 0,385.54 -312.55,698.09 -698.09,698.09 -385.54,0 -698.09,-312.55 -698.09,-698.09 0,-385.54 312.55,-698.09 698.09,-698.09z"/>
  <circle class="fil0" cx="507.7" cy="587.81" r="80.41"/>
  <circle class="fil0" cx="1052.27" cy="587.81" r="80.41"/>
  <path class="fil1" d="M485.01 1065.33c-15.65,0 -28.33,-12.69 -28.33,-28.33 0,-15.65 12.69,-28.33 28.33,-28.33l587.72 0c15.65,0 28.33,12.69 28.33,28.33 0,15.65 -12.69,28.33 -28.33,28.33l-587.72 0z"/>
 </g>
</svg>
