<?xml version="1.0" encoding="UTF-8"?>
<!DOCTYPE svg PUBLIC "-//W3C//DTD SVG 1.1//EN" "http://www.w3.org/Graphics/SVG/1.1/DTD/svg11.dtd">
<!-- Creator: CorelDRAW -->
<svg xmlns="http://www.w3.org/2000/svg" xml:space="preserve" width="41.2451mm" height="41.2451mm" version="1.1" style="shape-rendering:geometricPrecision; text-rendering:geometricPrecision; image-rendering:optimizeQuality; fill-rule:evenodd; clip-rule:evenodd"
viewBox="0 0 3428.97 3428.97"
 xmlns:xlink="http://www.w3.org/1999/xlink"
 xmlns:xodm="http://www.corel.com/coreldraw/odm/2003">
 <defs>
  <style type="text/css">
   <![CDATA[
    .fil0 {fill:#F58634}
    .fil1 {fill:#F58634;fill-rule:nonzero}
   ]]>
  </style>
 </defs>
 <g id="Capa_x0020_1">
  <metadata id="CorelCorpID_0Corel-Layer"/>
  <path class="fil0" d="M1714.48 0c946.88,0 1714.49,767.61 1714.49,1714.48 0,946.88 -767.61,1714.49 -1714.49,1714.49 -946.87,0 -1714.48,-767.61 -1714.48,-1714.49 0,-946.87 767.61,-1714.48 1714.48,-1714.48zm0 178.23c848.45,0 1536.26,687.81 1536.26,1536.25 0,848.45 -687.81,1536.26 -1536.26,1536.26 -848.44,0 -1536.25,-687.81 -1536.25,-1536.26 0,-848.44 687.81,-1536.25 1536.25,-1536.25z"/>
  <circle class="fil0" cx="1117.27" cy="1293.56" r="176.95"/>
  <circle class="fil0" cx="2315.67" cy="1293.56" r="176.95"/>
  <path class="fil1" d="M2264.59 2488.07c21.52,26.76 60.68,31.02 87.44,9.49 26.76,-21.52 31.02,-60.68 9.49,-87.44 -77.46,-96.66 -176.35,-175.72 -289.56,-230.1 -109.14,-52.43 -231.12,-81.81 -359.51,-81.81 -127.36,0 -248.24,28.77 -356.4,80.19 -112.26,53.36 -210.7,131.17 -288.43,226.53 -21.66,26.63 -17.62,65.79 9.01,87.44 26.63,21.66 65.79,17.62 87.44,-9.01 66.01,-80.97 149.65,-147.08 245.07,-192.43 91.75,-43.61 194.59,-68.02 303.31,-68.02 109.94,0 213.69,24.83 305.93,69.14 95.95,46.09 180.04,113.45 246.21,196.02z"/>
 </g>
</svg>
