<?xml version="1.0" encoding="UTF-8"?>
<!DOCTYPE svg PUBLIC "-//W3C//DTD SVG 1.1//EN" "http://www.w3.org/Graphics/SVG/1.1/DTD/svg11.dtd">
<!-- Creator: CorelDRAW -->
<svg xmlns="http://www.w3.org/2000/svg" xml:space="preserve" width="41.2451mm" height="41.2451mm" version="1.1" style="shape-rendering:geometricPrecision; text-rendering:geometricPrecision; image-rendering:optimizeQuality; fill-rule:evenodd; clip-rule:evenodd"
viewBox="0 0 1570.77 1570.77"
 xmlns:xlink="http://www.w3.org/1999/xlink"
 xmlns:xodm="http://www.corel.com/coreldraw/odm/2003">
 <defs>
  <style type="text/css">
   <![CDATA[
    .fil0 {fill:#00A859}
   ]]>
  </style>
 </defs>
 <g id="Capa_x0020_1">
  <metadata id="CorelCorpID_0Corel-Layer"/>
  <path class="fil0" d="M1069.51 923.65c7.51,-13.8 24.8,-18.9 38.61,-11.38 13.8,7.51 18.9,24.8 11.38,38.61 -32.92,60.2 -81.54,110.52 -140.33,145.4 -56.89,33.75 -123.25,53.13 -194.07,53.13 -70.56,0 -136.72,-19.25 -193.51,-52.8 -58.68,-34.67 -107.27,-84.66 -140.26,-144.46 -7.58,-13.8 -2.53,-31.14 11.27,-38.72 13.8,-7.58 31.14,-2.53 38.72,11.27 28.04,50.83 69.36,93.33 119.29,122.82 48.14,28.44 104.37,44.76 164.49,44.76 60.34,0 116.77,-16.45 165.05,-45.1 50.07,-29.71 91.44,-72.46 119.36,-123.53z"/>
  <path class="fil0" d="M785.38 0c433.75,0 785.38,351.63 785.38,785.38 0,433.75 -351.63,785.38 -785.38,785.38 -433.75,0 -785.38,-351.63 -785.38,-785.38 0,-433.75 351.63,-785.38 785.38,-785.38zm0 81.64c388.66,0 703.74,315.08 703.74,703.74 0,388.66 -315.08,703.74 -703.74,703.74 -388.66,0 -703.74,-315.08 -703.74,-703.74 0,-388.66 315.08,-703.74 703.74,-703.74z"/>
  <circle class="fil0" cx="511.81" cy="592.56" r="81.06"/>
  <circle class="fil0" cx="1060.78" cy="592.56" r="81.06"/>
 </g>
</svg>
