<?xml version="1.0" encoding="UTF-8"?>
<!DOCTYPE svg PUBLIC "-//W3C//DTD SVG 1.1//EN" "http://www.w3.org/Graphics/SVG/1.1/DTD/svg11.dtd">
<!-- Creator: CorelDRAW -->
<svg xmlns="http://www.w3.org/2000/svg" xml:space="preserve" width="41.2451mm" height="41.2451mm" version="1.1" style="shape-rendering:geometricPrecision; text-rendering:geometricPrecision; image-rendering:optimizeQuality; fill-rule:evenodd; clip-rule:evenodd"
viewBox="0 0 3355.53 3355.53"
 xmlns:xlink="http://www.w3.org/1999/xlink"
 xmlns:xodm="http://www.corel.com/coreldraw/odm/2003">
 <defs>
  <style type="text/css">
   <![CDATA[
    .fil0 {fill:#65BC50}
    .fil1 {fill:#65BC50;fill-rule:nonzero}
   ]]>
  </style>
 </defs>
 <g id="Capa_x0020_1">
  <metadata id="CorelCorpID_0Corel-Layer"/>
  <path class="fil0" d="M1677.76 0c926.6,0 1677.77,751.17 1677.77,1677.76 0,926.6 -751.17,1677.77 -1677.77,1677.77 -926.59,0 -1677.76,-751.17 -1677.76,-1677.77 0,-926.59 751.17,-1677.76 1677.76,-1677.76zm0 174.41c830.28,0 1503.36,673.08 1503.36,1503.35 0,830.28 -673.08,1503.36 -1503.36,1503.36 -830.27,0 -1503.35,-673.08 -1503.35,-1503.36 0,-830.27 673.08,-1503.35 1503.35,-1503.35z"/>
  <circle class="fil0" cx="1093.34" cy="1265.85" r="173.16"/>
  <circle class="fil0" cx="2266.08" cy="1265.85" r="173.16"/>
  <path class="fil1" d="M2216.09 2073.89c21.06,-26.19 59.38,-30.35 85.57,-9.29 26.19,21.06 30.35,59.38 9.29,85.57 -75.8,94.59 -172.57,171.95 -283.35,225.18 -106.8,51.3 -226.17,80.05 -351.81,80.05 -124.63,0 -242.92,-28.16 -348.76,-78.48 -109.85,-52.21 -206.19,-128.36 -282.26,-221.68 -21.19,-26.06 -17.24,-64.38 8.82,-85.57 26.06,-21.19 64.38,-17.24 85.57,8.82 64.6,79.24 146.44,143.93 239.82,188.31 89.78,42.68 190.42,66.57 296.81,66.57 107.58,0 209.11,-24.3 299.37,-67.66 93.89,-45.1 176.18,-111.02 240.94,-191.82z"/>
 </g>
</svg>
